<svg height="512" viewBox="0 0 64 64" width="512" xmlns="http://www.w3.org/2000/svg"><g id="doctor-covid19-coronavirus-medical-healthcare"><path d="m42 21a2.006 2.006 0 0 0 2-2v-1a2.006 2.006 0 0 0 -2-2h-2v5z" fill="#ffac96"/><path d="m22 16a2.006 2.006 0 0 0 -2 2v1a2.006 2.006 0 0 0 2 2h2v-5z" fill="#ffac96"/><path d="m32 40-2.26-.75-1.74 21.75h8l-1.74-21.75z" fill="#006df0"/><path d="m29.89 36.69-.15 2.56-1.74 21.75h-17v-17.19a9.992 9.992 0 0 1 7.57-9.7l1.46-.36 2.97-.75 4 6z" fill="#9bc9ff"/><circle cx="20" cy="46" fill="none" r="3"/><path d="m32 35-2.111 1.689-.149 2.561 2.26.75 2.26-.75-.149-2.561z" fill="#004fac"/><path d="m53 43.81v17.19h-17l-1.74-21.75-.15-2.56 2.89 2.31 4-6 2.97.75 1.46.36a9.992 9.992 0 0 1 7.57 9.7z" fill="#9bc9ff"/><g fill="#d1e7f8"><path d="m27 39 5-4-5-3-4 1z"/><path d="m41 33-4-1-5 3 5 4z"/><path d="m37 39 .054-.081-.509-.283z"/></g><path d="m38 12h-12a2 2 0 0 0 -2 2v8a8 8 0 0 0 16 0v-8a2 2 0 0 0 -2-2z" fill="#ffbcab"/><path d="m21 16.279v-7.279a4 4 0 0 1 4-4h2a2 2 0 0 1 2 2 4 4 0 0 1 4-4h4a6 6 0 0 1 6 6v7.279a1.975 1.975 0 0 0 -1-.279h-2v-2a2 2 0 0 0 -2-2h-12a2 2 0 0 0 -2 2v2h-2a1.975 1.975 0 0 0 -1 .279z" fill="#414042"/><path d="m27 5h-2a4 4 0 0 0 -4 4v7.279a1.975 1.975 0 0 1 1-.279h2v-2a2 2 0 0 1 2-2h3v-5a2 2 0 0 0 -2-2z" fill="#58595b"/><path d="m29.707 23.293a1 1 0 0 0 -1.407 1.416 5.246 5.246 0 0 0 7.412 0 1 1 0 0 0 -1.421-1.409 3.244 3.244 0 0 1 -4.582 0z" fill="#6d6e71"/><path d="m44 39a1 1 0 0 1 -1-1v-4a3 3 0 0 0 -3-3h-3a1 1 0 0 1 0-2h3a5.006 5.006 0 0 1 5 5v4a1 1 0 0 1 -1 1z" fill="#d80027"/><path d="m20 45a1 1 0 0 1 -1-1v-10a5.006 5.006 0 0 1 5-5h3a1 1 0 0 1 0 2h-3a3 3 0 0 0 -3 3v10a1 1 0 0 1 -1 1z" fill="#d80027"/><path d="m29 19a1 1 0 0 0 1-1v-1a1 1 0 0 0 -2 0v1a1 1 0 0 0 1 1z" fill="#6d6e71"/><path d="m35 19a1 1 0 0 0 1-1v-1a1 1 0 0 0 -2 0v1a1 1 0 0 0 1 1z" fill="#6d6e71"/><path d="m44 51a1 1 0 0 0 -1 1v9h2v-9a1 1 0 0 0 -1-1z" fill="#57a4ff"/><path d="m20 51a1 1 0 0 1 1 1v9h-2v-9a1 1 0 0 1 1-1z" fill="#57a4ff"/><path d="m27 32 5 3 5-3v-3.76a7.982 7.982 0 0 1 -10 0z" fill="#ffac96"/><path d="m32 30a7.963 7.963 0 0 1 -5-1.76v2a7.982 7.982 0 0 0 10 0v-2a7.963 7.963 0 0 1 -5 1.76z" fill="#ff9478"/><path d="m45 38h-2a1 1 0 0 0 -1 1v2.422a4.95 4.95 0 0 1 4 0v-2.422a1 1 0 0 0 -1-1z" fill="#005ece"/><path d="m48 50h-1a1 1 0 0 1 0-2h1v-2a4 4 0 0 0 -8 0v2h1a1 1 0 0 1 0 2h-1a2 2 0 0 1 -2-2v-2a6 6 0 0 1 12 0v2a2 2 0 0 1 -2 2z" fill="#d80027"/><circle cx="20" cy="46" fill="#005ece" r="3"/><circle cx="20" cy="46" fill="#f1f2f2" r="1"/></g></svg>